<svg width="97" height="40" viewBox="0 0 97 40" fill="none" xmlns="http://www.w3.org/2000/svg">
<path d="M1.888 32L0.832 29.376L7.36 22.24C7.72267 21.8347 8.11733 21.376 8.544 20.864C8.97067 20.352 9.38667 19.8293 9.792 19.296C10.1973 18.7413 10.5173 18.208 10.752 17.696C11.008 17.184 11.136 16.7147 11.136 16.288C11.136 15.8613 11.04 15.488 10.848 15.168C10.656 14.848 10.3787 14.6027 10.016 14.432C9.65333 14.24 9.19467 14.144 8.64 14.144C8.14933 14.144 7.68 14.272 7.232 14.528C6.784 14.7627 6.35733 15.136 5.952 15.648C5.568 16.16 5.20533 16.7893 4.864 17.536L0.832 15.36C1.28 14.1227 1.90933 13.0347 2.72 12.096C3.552 11.136 4.52267 10.4 5.632 9.888C6.74133 9.35467 7.92533 9.088 9.184 9.088C10.5067 9.10933 11.7013 9.39733 12.768 9.952C13.8347 10.4853 14.6773 11.2427 15.296 12.224C15.936 13.184 16.256 14.3147 16.256 15.616C16.256 16.064 16.2027 16.5333 16.096 17.024C15.9893 17.5147 15.8293 18.0267 15.616 18.56C15.4027 19.072 15.1147 19.6267 14.752 20.224C14.4107 20.8 13.9947 21.408 13.504 22.048C13.0133 22.688 12.4373 23.3707 11.776 24.096L6.688 29.632L6.048 27.2H17.248V32H1.888ZM26.2353 32.352C24.7633 32.352 23.4513 31.9787 22.2993 31.232C21.1686 30.464 20.2726 29.4187 19.6113 28.096C18.9499 26.752 18.6193 25.2267 18.6193 23.52C18.6193 21.8133 18.9499 20.2987 19.6113 18.976C20.2726 17.632 21.1793 16.576 22.3313 15.808C23.4833 15.04 24.8059 14.656 26.2993 14.656C27.0673 14.656 27.8033 14.7733 28.5073 15.008C29.2113 15.2427 29.8513 15.5627 30.4273 15.968C31.0033 16.3733 31.4726 16.8427 31.8353 17.376C32.1979 17.888 32.4113 18.4213 32.4753 18.976L31.2593 19.264V8.32H36.4113V32H31.6433L31.3553 28.128L32.3793 28.288C32.3153 28.8213 32.1019 29.3333 31.7393 29.824C31.3979 30.3147 30.9499 30.752 30.3953 31.136C29.8406 31.4987 29.2006 31.7867 28.4753 32C27.7713 32.2347 27.0246 32.352 26.2353 32.352ZM27.5473 28.096C28.3366 28.096 29.0193 27.904 29.5953 27.52C30.1713 27.136 30.6086 26.6027 30.9073 25.92C31.2273 25.2373 31.3873 24.4373 31.3873 23.52C31.3873 22.5813 31.2273 21.7707 30.9073 21.088C30.6086 20.4053 30.1713 19.872 29.5953 19.488C29.0193 19.104 28.3366 18.912 27.5473 18.912C26.7579 18.912 26.0753 19.104 25.4993 19.488C24.9446 19.872 24.5073 20.4053 24.1873 21.088C23.8673 21.7707 23.7073 22.5813 23.7073 23.52C23.7073 24.4373 23.8673 25.2373 24.1873 25.92C24.5073 26.6027 24.9446 27.136 25.4993 27.52C26.0753 27.904 26.7579 28.096 27.5473 28.096ZM48.7408 32.32C46.9701 32.32 45.3914 31.936 44.0048 31.168C42.6394 30.4 41.5514 29.3547 40.7408 28.032C39.9514 26.7093 39.5568 25.1947 39.5568 23.488C39.5568 21.7813 39.9514 20.2667 40.7408 18.944C41.5514 17.6213 42.6394 16.576 44.0048 15.808C45.3914 15.04 46.9701 14.656 48.7408 14.656C50.5114 14.656 52.0794 15.04 53.4448 15.808C54.8314 16.576 55.9194 17.6213 56.7088 18.944C57.4981 20.2667 57.8928 21.7813 57.8928 23.488C57.8928 25.1947 57.4981 26.7093 56.7088 28.032C55.9194 29.3547 54.8314 30.4 53.4448 31.168C52.0794 31.936 50.5114 32.32 48.7408 32.32ZM48.7408 27.904C49.5088 27.904 50.1914 27.712 50.7888 27.328C51.3861 26.944 51.8554 26.4213 52.1968 25.76C52.5381 25.0987 52.6981 24.3413 52.6768 23.488C52.6981 22.6347 52.5381 21.8773 52.1968 21.216C51.8554 20.5333 51.3861 20 50.7888 19.616C50.1914 19.232 49.5088 19.04 48.7408 19.04C47.9728 19.04 47.2794 19.232 46.6608 19.616C46.0634 20 45.5941 20.5333 45.2528 21.216C44.9114 21.8773 44.7514 22.6347 44.7728 23.488C44.7514 24.3413 44.9114 25.0987 45.2528 25.76C45.5941 26.4213 46.0634 26.944 46.6608 27.328C47.2794 27.712 47.9728 27.904 48.7408 27.904Z" fill="#C86D00"/>
<g filter="url(#filter0_d_111_13)">
<path d="M90 10C90.2652 10 90.5196 10.1054 90.7071 10.2929C90.8946 10.4804 91 10.7348 91 11V29C91 29.2652 90.8946 29.5196 90.7071 29.7071C90.5196 29.8946 90.2652 30 90 30H64C63.7348 30 63.4804 29.8946 63.2929 29.7071C63.1054 29.5196 63 29.2652 63 29V11C63 10.7348 63.1054 10.4804 63.2929 10.2929C63.4804 10.1054 63.7348 10 64 10H90ZM64 8C63.2044 8 62.4413 8.31607 61.8787 8.87868C61.3161 9.44129 61 10.2044 61 11V29C61 29.7956 61.3161 30.5587 61.8787 31.1213C62.4413 31.6839 63.2044 32 64 32H90C90.7956 32 91.5587 31.6839 92.1213 31.1213C92.6839 30.5587 93 29.7956 93 29V11C93 10.2044 92.6839 9.44129 92.1213 8.87868C91.5587 8.31607 90.7956 8 90 8H64Z" fill="#C86D00"/>
<path d="M75.0001 15.0001C75.0001 14.7349 75.1054 14.4805 75.293 14.293C75.4805 14.1054 75.7349 14.0001 76.0001 14.0001H86.0001C86.2653 14.0001 86.5197 14.1054 86.7072 14.293C86.8947 14.4805 87.0001 14.7349 87.0001 15.0001C87.0001 15.2653 86.8947 15.5196 86.7072 15.7072C86.5197 15.8947 86.2653 16.0001 86.0001 16.0001H76.0001C75.7349 16.0001 75.4805 15.8947 75.293 15.7072C75.1054 15.5196 75.0001 15.2653 75.0001 15.0001ZM72.0081 13.2921C72.1012 13.385 72.1751 13.4953 72.2255 13.6168C72.2759 13.7383 72.3019 13.8685 72.3019 14.0001C72.3019 14.1316 72.2759 14.2619 72.2255 14.3833C72.1751 14.5048 72.1012 14.6152 72.0081 14.7081L69.0081 17.7081C68.9152 17.8012 68.8048 17.8751 68.6834 17.9255C68.5619 17.9759 68.4316 18.0019 68.3001 18.0019C68.1686 18.0019 68.0383 17.9759 67.9168 17.9255C67.7953 17.8751 67.685 17.8012 67.5921 17.7081L66.5921 16.7081C66.4991 16.6151 66.4254 16.5047 66.375 16.3832C66.3247 16.2618 66.2988 16.1316 66.2988 16.0001C66.2988 15.7345 66.4043 15.4799 66.5921 15.2921C66.7799 15.1043 67.0345 14.9988 67.3001 14.9988C67.5656 14.9988 67.8203 15.1043 68.0081 15.2921L68.3001 15.5861L70.5921 13.2921C70.685 13.199 70.7953 13.1251 70.9168 13.0747C71.0383 13.0242 71.1686 12.9983 71.3001 12.9983C71.4316 12.9983 71.5619 13.0242 71.6834 13.0747C71.8048 13.1251 71.9152 13.199 72.0081 13.2921ZM75.0001 23.0001C75.0001 22.7349 75.1054 22.4805 75.293 22.293C75.4805 22.1054 75.7349 22.0001 76.0001 22.0001H86.0001C86.2653 22.0001 86.5197 22.1054 86.7072 22.293C86.8947 22.4805 87.0001 22.7349 87.0001 23.0001C87.0001 23.2653 86.8947 23.5196 86.7072 23.7072C86.5197 23.8947 86.2653 24.0001 86.0001 24.0001H76.0001C75.7349 24.0001 75.4805 23.8947 75.293 23.7072C75.1054 23.5196 75.0001 23.2653 75.0001 23.0001ZM72.0081 21.2921C72.1012 21.385 72.1751 21.4953 72.2255 21.6168C72.2759 21.7383 72.3019 21.8685 72.3019 22.0001C72.3019 22.1316 72.2759 22.2619 72.2255 22.3833C72.1751 22.5048 72.1012 22.6152 72.0081 22.7081L69.0081 25.7081C68.9152 25.8012 68.8048 25.8751 68.6834 25.9255C68.5619 25.9759 68.4316 26.0019 68.3001 26.0019C68.1686 26.0019 68.0383 25.9759 67.9168 25.9255C67.7953 25.8751 67.685 25.8012 67.5921 25.7081L66.5921 24.7081C66.4991 24.6151 66.4254 24.5047 66.375 24.3832C66.3247 24.2618 66.2988 24.1316 66.2988 24.0001C66.2988 23.8686 66.3247 23.7384 66.375 23.6169C66.4254 23.4954 66.4991 23.3851 66.5921 23.2921C66.6851 23.1991 66.7954 23.1253 66.9169 23.075C67.0384 23.0247 67.1686 22.9988 67.3001 22.9988C67.4316 22.9988 67.5618 23.0247 67.6833 23.075C67.8047 23.1253 67.9151 23.1991 68.0081 23.2921L68.3001 23.5861L70.5921 21.2921C70.685 21.199 70.7953 21.1251 70.9168 21.0747C71.0383 21.0242 71.1686 20.9983 71.3001 20.9983C71.4316 20.9983 71.5619 21.0242 71.6834 21.0747C71.8048 21.1251 71.9152 21.199 72.0081 21.2921Z" fill="#C86D00"/>
</g>
<defs>
<filter id="filter0_d_111_13" x="57" y="6" width="40" height="32" filterUnits="userSpaceOnUse" color-interpolation-filters="sRGB">
<feFlood flood-opacity="0" result="BackgroundImageFix"/>
<feColorMatrix in="SourceAlpha" type="matrix" values="0 0 0 0 0 0 0 0 0 0 0 0 0 0 0 0 0 0 127 0" result="hardAlpha"/>
<feOffset dy="2"/>
<feGaussianBlur stdDeviation="2"/>
<feComposite in2="hardAlpha" operator="out"/>
<feColorMatrix type="matrix" values="0 0 0 0 0 0 0 0 0 0 0 0 0 0 0 0 0 0 0.5 0"/>
<feBlend mode="normal" in2="BackgroundImageFix" result="effect1_dropShadow_111_13"/>
<feBlend mode="normal" in="SourceGraphic" in2="effect1_dropShadow_111_13" result="shape"/>
</filter>
</defs>
</svg>
